<?xml version="1.0" encoding="utf-8"?>
<!-- Generator: Adobe Illustrator 27.5.0, SVG Export Plug-In . SVG Version: 6.00 Build 0)  -->
<svg version="1.1" xmlns="http://www.w3.org/2000/svg" xmlns:xlink="http://www.w3.org/1999/xlink" x="0px" y="0px"
	 viewBox="0 0 750 500" style="enable-background:new 0 0 750 500;" xml:space="preserve">
<g id="BACKGROUND">
</g>
<g id="OBJECTS">
	<g>
		<path style="opacity:0.8;fill:#FDE8A4;" d="M95.239,356.739c-11.506-23.1-6.08-56.914,13.101-77.596
			c19.182-20.682,51.604-31.998,81.113-28.309c21.439,2.68,40.367,12.467,61.502,16.256c31.587,5.664,67.215-3.328,91.542-23.102
			c38.892-31.613,46.401-84.519,88.182-113.289c32.354-22.279,79.256-23.811,114.923-9.266
			c35.667,14.545,60.977,42.809,76.552,73.818c15.575,31.008,22.428,64.955,29.167,98.564c4.206,20.975,8.412,41.95,12.617,62.925
			H95.239z"/>
		<g>
			<g>
				<g>
					<g>
						<g>
							<path style="fill:#FF7284;" d="M464.749,118.351c-13.725,0-24.852,11.126-24.852,24.852
								c0,13.725,11.127,24.852,24.852,24.852c13.725,0,24.852-11.126,24.852-24.852
								C489.601,129.477,478.474,118.351,464.749,118.351z M464.75,152.98c-3.075,0-5.568-2.493-5.568-5.568
								c0-2.508,1.659-4.627,3.938-5.324v-7.034c0-0.9,0.73-1.63,1.629-1.63h0c0.9,0,1.629,0.73,1.629,1.63v7.034
								c2.28,0.697,3.938,2.816,3.938,5.324C470.317,150.487,467.824,152.98,464.75,152.98z"/>
						</g>
					</g>
					<g>
						<path style="fill:#FF7284;" d="M455.179,127.488c-0.93,0-1.844-0.446-2.405-1.274l-8.194-12.082
							c-1.901-2.803-2.597-6.179-1.959-9.506c0.638-3.326,2.533-6.205,5.336-8.106c2.803-1.901,6.18-2.597,9.505-1.959
							c3.326,0.638,6.205,2.533,8.107,5.336l3.107,4.581c0.9,1.327,0.554,3.132-0.773,4.032c-1.327,0.9-3.132,0.553-4.032-0.773
							l-3.107-4.581c-1.031-1.52-2.592-2.547-4.395-2.893c-1.804-0.346-3.634,0.032-5.153,1.062
							c-1.52,1.031-2.547,2.592-2.893,4.395c-0.346,1.804,0.031,3.634,1.062,5.154l8.194,12.082c0.9,1.327,0.554,3.132-0.773,4.032
							C456.307,127.326,455.74,127.488,455.179,127.488z"/>
					</g>
				</g>
			</g>
			<path style="opacity:0.5;fill:#95B1DB;" d="M522.523,385.499c-0.92,4.532,13.988,5.78,25.433,5.202
				c8.14-0.411,21.427-0.764,28.421-0.933c1.898-0.046,2.917-2.248,1.726-3.727l0,0c-1.279-1.588-0.004-3.93,2.024-3.714
				c4.976,0.53,13.896,1.04,29.446,0.86c29.826-0.347,31.791-4.277,31.675-6.127c-0.116-1.85-20.693-2.774-33.178-2.774
				S524.026,378.101,522.523,385.499z"/>
			<path style="opacity:0.5;fill:#95B1DB;" d="M262.773,377.371c0,5.447-17.894,7.063-27.476,7.274
				c-9.582,0.211-38.491-1.687-38.491-1.687s-6.019,3.901-19.286,4.428c-13.267,0.527-42.995,0.422-42.995,0.422l26.166-4.322
				c0,0,0.614-3.584,7.37-4.428c6.756-0.843,17.444,0.211,17.444,0.211l-8.353-6.958l75.057-2.636
				C252.209,369.675,262.773,368.831,262.773,377.371z"/>
			
				<line style="fill:none;stroke:#BFCDFE;stroke-linecap:round;stroke-miterlimit:10;" x1="38.077" y1="357.122" x2="711.922" y2="357.122"/>
			<g>
				<g>
					
						<ellipse transform="matrix(0.2231 -0.9748 0.9748 0.2231 125.1714 777.6907)" style="fill:#3E41A8;" cx="550.472" cy="310.319" rx="69.652" ry="69.652"/>
					<path style="fill:#FF7384;" d="M550.472,310.319l40.167-56.904c18.473,13.04,29.485,34.291,29.485,56.904
						c0,38.21-31.442,69.652-69.652,69.652c-38.21,0-69.652-31.442-69.652-69.652c0-24.072,12.479-46.498,32.934-59.188
						L550.472,310.319z"/>
					<path style="fill:#F4A177;" d="M550.472,310.319l65.669,23.216c-9.815,27.763-36.223,46.436-65.669,46.436
						c-38.21,0-69.652-31.442-69.652-69.652c0-24.072,12.479-46.498,32.934-59.188L550.472,310.319z"/>
				</g>
			</g>
			<g>
				<g>
					<path style="fill:#CED8FE;" d="M240.964,111.482c-0.679-8.533-1.282-16.401-1.968-24.392c7.353-2.48,14.708-4.953,22.063-7.425
						c2.622-0.881,3.492-0.605,5.051,1.637c4.119,5.925,8.258,11.836,12.328,17.795c1.187,1.738,2.663,2.543,4.786,2.337
						c1.883-0.183,3.782-0.282,5.673-0.219c1.886,0.063,2.949-0.835,3.784-2.411c3.296-6.226,6.638-12.427,9.971-18.633
						c1.705-3.174,2.167-3.358,5.686-2.506c6.349,1.536,12.701,3.057,19.053,4.578c2.813,0.674,3.385,1.34,3.486,4.168
						c0.256,7.098,0.548,14.195,0.73,21.295c0.074,2.909,1.454,4.687,5.077,5.557c2.435,2.506,4.549,2.892,6.927,1.55
						c7.222-4.077,14.496-8.06,21.741-12.095c5.529,5.646,11.061,11.288,16.593,16.931c1.97,2.009,2.067,2.918,0.602,5.392
						c-3.591,6.061-7.142,12.145-10.786,18.174c-1.494,2.472-1.201,4.668,1.469,7.324c0.755,3.468,2.322,5.078,5.109,5.243
						c7.26,0.43,14.517,0.911,21.772,1.41c2.763,0.19,3.362,0.757,3.965,3.517c1.455,6.658,2.896,13.32,4.348,19.979
						c0.464,2.128,0.018,3.145-1.963,4.143c-6.394,3.218-12.78,6.452-19.212,9.595c-2.266,1.107-3.249,2.796-2.999,5.597
						c0.121,1.354,0.002,2.722-0.278,4.052c-0.527,2.499,0.117,4.283,2.001,5.66c5.872,4.291,11.709,8.63,17.554,12.957
						c2.201,1.63,2.445,2.479,1.495,5.097c-2.209,6.088-4.419,12.175-6.636,18.26c-0.93,2.553-1.779,3.043-4.493,2.75
						c-7.004-0.758-14.012-1.467-21.012-2.258c-2.902-0.328-4.674,1.157-5.996,4.81c-0.243,0.672-0.684,1.269-1.257,1.695
						c-3.037,2.259-3.692,4.437-2.69,7.041c2.987,7.763,5.91,15.551,8.866,23.326c-5.856,4.453-11.713,8.906-17.577,13.349
						c-2.081,1.576-3.077,1.554-5.138-0.106c-5.398-4.349-10.817-8.673-16.17-13.077c-2.141-1.762-4.222-1.918-7.131-0.023
						c-1.571,1.023-3.347,1.747-5.206,1.992c-3.005,0.396-4.558,1.706-5.058,4.127c-1.438,6.95-2.926,13.89-4.386,20.835
						c-0.67,3.188-1.203,3.73-4.516,3.999c-5.941,0.482-11.885,0.946-17.835,1.305c-2.363,0.143-3.235-0.607-3.991-2.87
						c-2.247-6.735-4.515-13.464-6.704-20.218c-0.72-2.222-2.112-3.387-4.66-3.658c-2.893-0.308-5.73-1.052-8.505-1.926
						c-2.418-0.761-4.241-0.34-5.929,1.412c-4.849,5.033-9.787,9.98-14.693,14.958c-2.065,2.095-2.838,2.207-5.348,0.792
						c-5.098-2.873-10.198-5.743-15.292-8.623c-2.569-1.452-2.881-2.222-2.143-5.134c1.97-7.78,3.905-15.569,5.952-23.329
						c-3.184-3.195-6.317-6.443-9.408-9.729c-1.334-1.418-2.825-1.863-4.76-1.41c-7.968,1.863-15.966,3.599-23.949,5.397
						c-3.285-6.365-6.573-12.728-9.848-19.098c-1.119-2.177-0.962-3.156,0.812-4.815c5.187-4.853,10.341-9.742,15.605-14.509
						c2.358-2.135,2.595-4.48,1.109-8.034c-0.626-1.497-0.879-3.116-0.816-4.738c0.125-3.239-0.909-5.063-3.418-5.961
						c-7.112-2.548-14.19-5.191-21.301-7.743c-1.119-0.402-1.665-0.9-1.521-2.18c0.784-6.995,1.467-14.002,2.278-20.994
						c0.23-1.984,1.129-2.63,3.507-3.058c8.077-1.454,16.147-2.944,24.241-4.297c1.638-4.421,3.409-8.816,5.473-13.056
						c-4.936-6.344-9.758-12.777-14.61-19.186c-1.681-2.22-1.676-3.157,0.023-5.271c4.058-5.049,8.118-10.096,12.185-15.138
						c1.577-1.956,2.571-2.207,4.877-1.253c7.685,3.18,15.383,6.326,23.03,9.596c2.335-1.723,4.659-3.549,7.16-5.063
						C240.319,115.358,241.491,113.639,240.964,111.482z M289.43,236.639c22.195,0.063,40.221-17.948,40.277-40.243
						c0.056-22.286-17.941-40.325-40.263-40.356c-22.164-0.031-40.106,17.897-40.225,40.194
						C249.1,218.487,267.103,236.576,289.43,236.639z"/>
				</g>
			</g>
			<path style="fill:#4A4685;" d="M256.312,432.152c9.074-7.991,18.148-15.982,27.35-24.085c-8.421,0-16.688,0-25.066,0
				c9.154-8.061,18.18-16.009,27.295-24.036c41.777,0,83.579,0,125.521,0c-9.04,7.96-18.093,15.933-27.233,23.982
				c-8.265,0-16.48,0-24.855,0c-4.58,4.033-9.074,7.991-13.696,12.061c8.252,0,16.519,0,24.888,0
				c-9.154,8.061-18.18,16.009-27.29,24.032c-8.264,0-16.528,0-25.029,0c4.496-3.959,8.991-7.918,13.571-11.951
				c-8.448,0-16.664,0-25.113,0c4.579-4.033,9.075-7.992,13.635-12.007c-8.448,0-16.662,0-25.112,0
				c-4.468,3.934-8.963,7.893-13.599,11.975c-8.586,0-16.94,0-25.294,0C256.285,432.123,256.312,432.152,256.312,432.152z
				 M308.997,407.971c8.424,0,16.682,0,24.888,0c4.573-4.027,9.063-7.982,13.535-11.92c-8.377,0-16.585,0-24.888,0
				C318.009,400.035,313.546,403.966,308.997,407.971z"/>
			<g>
				<path style="fill:#FFFFFF;stroke:#CBC7D5;stroke-width:2.3038;stroke-miterlimit:10;" d="M282.022,380.377
					c0-73.473,0-146.946,0-220.419c73.473,0,146.946,0,220.419,0c0,73.473,0,146.946,0,220.419
					C428.968,380.377,355.495,380.377,282.022,380.377z M331.195,257.918c0-2.699,0-5.397,0-8.089c-8.169,0-16.256,0-24.32,0
					c0,5.429,0,10.807,0,16.166c2.711,0,5.364,0,8.092,0c0-2.71,0-5.38,0-8.096c5.466,0,10.856,0,16.247,0
					c0,8.116,0,16.233,0,24.337c-5.483,0-10.863,0-16.293,0c0-2.708,0-5.363,0-8.027c-2.722,0-5.392,0-8.049,0
					c0,5.426,0,10.805,0,16.173c10.835,0,21.616,0,32.473,0c0-5.416,0-10.796,0-16.249c8.164,0,16.252,0,24.333,0
					c0-2.729,0-5.383,0-8.112c-5.416,0-10.795,0-16.231,0c0-2.757,0-5.439,0-8.122c5.405,0,10.809,0,16.222,0
					c0-2.741,0-5.41,0-8.072c-5.422,0-10.798,0-16.202,0c0,2.729,0,5.41,0,8.091C342.043,257.919,336.619,257.919,331.195,257.918z
					 M404.362,241.663c-2.698,0-5.396,0-8.166,0c0-5.482,0-10.86,0-16.233c-2.727,0-5.38,0-8.106,0c0,5.412,0,10.791,0,16.173
					c-2.743,0-5.413,0-8.119,0c0-0.321,0-0.594,0-0.867c-0.004-7.825-0.008-15.651-0.012-23.476c2.699,0,5.399,0,8.173,0
					c0-2.755,0-5.426,0-8.081c2.73,0,5.385,0,8.114,0c0,2.71,0,5.381,0,8.102c2.73,0,5.385,0,8.114,0c0,2.722,0,5.393,0,8.064
					c2.747,0,5.417,0,8.088,0c0-5.414,0-10.777,0-16.216c-2.704,0-5.376,0-8.042,0c0-2.747,0-5.417,0-8.139c2.706,0,5.361,0,8.031,0
					c0-5.432,0-10.811,0-16.182c-13.552,0-27.06,0-40.558,0c0,5.416,0,10.78,0,16.219c2.707,0,5.378,0,8.099,0
					c0,5.468,0,10.86,0,16.252c-2.698,0-5.396,0-8.16,0c0,21.709,0,43.338,0,65.039c-8.152,0-16.239,0-24.328,0
					c0,2.726,0,5.38,0,8.105c8.119,0,16.206,0,24.367,0c0,2.742,0,5.412,0,8.136c2.757,0,5.438,0,8.12,0l-0.02-0.02
					c0.007,2.715,0.015,5.43,0.022,8.145c-2.697,0-5.394,0-8.09,0c0,2.745,0,5.414,0,8.11c2.729,0,5.41,0,8.09,0
					c0,5.424,0.001,10.849,0.001,16.273c-2.699,0-5.398,0-8.087,0c0,8.172,0,16.26,0,24.34c8.125,0,16.197,0,24.287,0
					c0-2.707,0-5.377,0-8.123c-2.715,0-5.386,0-8.107,0c0-2.73,0-5.384,0-8.113c-2.721,0-5.392,0-8.113,0c0-2.758,0-5.441,0-8.123
					c5.407,0,10.815,0,16.297,0c0-2.75,0-5.421,0-8.08c13.565,0,27.055,0,40.561,0c0,2.706,0,5.376,0,8.121
					c-5.424,0-10.803,0-16.175,0c0,2.729,0,5.383,0,8.112c2.706,0,5.377,0,8.103,0c0,2.758,0,5.439,0,8.122
					c-2.696,0-5.393,0-8.093,0c0,2.743,0,5.411,0,8.071c2.714,0,5.382,0,8.074,0c0-2.73,0-5.41,0-8.09c5.407,0,10.815,0,16.297,0
					c0,2.775,0,5.446,0,8.102c2.73,0,5.384,0,8.112,0c0-5.417,0-10.797,0-16.249c8.163,0,16.251,0,24.33,0c0-2.729,0-5.382,0-8.111
					c-5.416,0-10.795,0-16.23,0c0-2.757,0-5.439,0-8.121c2.696,0,5.392,0,8.093,0c0-2.743,0-5.411,0-8.071c-2.714,0-5.382,0-8.074,0
					c0,2.73,0,5.41,0,8.09c-2.697,0-5.393,0-8.09,0c0-5.475,0-10.85,0-16.298c2.714,0,5.383,0,8.07,0c0-5.46,0-10.847,0-16.234
					c2.696,0,5.393,0,8.094,0c0-2.743,0-5.411,0-8.07c-2.714,0-5.382,0-8.074,0c0,2.73,0,5.41,0,8.09c-2.698,0-5.397,0-8.147,0
					c0-5.496,0-10.887,0-16.277c2.697,0,5.394,0,8.09,0c0-2.745,0-5.414,0-8.109c-2.729,0-5.41,0-8.09,0c0-2.699,0-5.397,0-8.171
					c-2.752,0-5.423,0-8.143,0c0-2.73,0-5.384,0-8.11c-13.557,0-27.063,0-40.625,0c0-2.755,0-5.437,0-8.119c2.696,0,5.393,0,8.094,0
					c0-2.743,0-5.411,0-8.07c-2.714,0-5.381,0-8.074,0C404.362,236.303,404.362,238.983,404.362,241.663z M306.849,241.603
					c18.979,0,37.904,0,56.81,0c0-18.973,0-37.898,0-56.811c-18.963,0-37.872,0-56.81,0
					C306.849,203.737,306.849,222.645,306.849,241.603z M477.456,241.622c0-18.982,0-37.907,0-56.811c-18.974,0-37.899,0-56.809,0
					c0,18.964,0,37.873,0,56.811C439.593,241.622,458.502,241.622,477.456,241.622z M306.867,298.577c0,18.98,0,37.904,0,56.811
					c18.974,0,37.898,0,56.81,0c0-18.963,0-37.872,0-56.811C344.733,298.577,325.825,298.577,306.867,298.577z M477.456,274.13
					c0-8.14,0-16.228,0-24.318c-5.413,0-10.776,0-16.165,0c0,2.704,0,5.374,0,8.12c2.712,0,5.383,0,8.103,0
					c0,5.439,0,10.802,0,16.198C472.099,274.13,474.753,274.13,477.456,274.13z M469.414,298.578c0,2.733,0,5.385,0,8.054
					c2.706,0,5.375,0,8.042,0c0-2.712,0-5.381,0-8.054C474.755,298.578,472.103,298.578,469.414,298.578z M412.434,347.284
					c0-2.723,0-5.391,0-8.043c-2.717,0-5.386,0-8.044,0c0,2.707,0,5.36,0,8.043C407.079,347.284,409.731,347.284,412.434,347.284z
					 M477.457,355.413c0-2.726,0-5.395,0-8.043c-2.719,0-5.388,0-8.042,0c0,2.708,0,5.361,0,8.043
					C472.104,355.413,474.757,355.413,477.457,355.413z"/>
				<path style="fill:#FFFFFF;" d="M379.978,298.559c0-2.682,0-5.365,0-8.123c2.704,0,5.375,0,8.082,0c0-2.729,0-5.383,0-8.113
					c-2.658,0-5.329,0-8.045,0c0-5.454,0-10.833,0-16.263c5.376,0,10.74,0,16.178,0c0-2.72,0-5.391,0-8.107
					c8.163,0,16.251,0,24.39,0c0,5.375,0,10.738,0,16.176c5.429,0,10.809,0,16.269,0c0,2.773,0,5.472,0,8.17l0.02-0.02
					c-7.789,0.004-15.579,0.007-23.368,0.012c-0.344,0-0.687,0.007-1.031,0.011c0-2.696,0-5.393,0-8.094c-2.743,0-5.411,0-8.07,0
					c0,2.714,0,5.381,0,8.074c2.73,0,5.41,0,8.09,0c0,5.39,0,10.779,0,16.216c-2.72,0-5.39,0-8.134,0c0-2.675,0-5.346,0-8.047
					c-2.727,0-5.381,0-8.108,0c0,2.67,0,5.34,0,8.088c-5.48,0-10.887,0-16.293,0L379.978,298.559z"/>
				<path style="fill:#FFFFFF;" d="M428.73,306.686c5.387,0,10.774,0,16.212,0c0,2.688,0,5.356,0,8.07c-5.367,0-10.742,0-16.192,0
					c0-2.697,0-5.394,0-8.09L428.73,306.686z"/>
				<path style="fill:#FFFFFF;" d="M436.854,282.299c2.68,0,5.36,0,8.09,0c0,2.693,0,5.36,0,8.074c-2.659,0-5.326,0-8.07,0
					c0-2.701,0-5.397,0-8.093C436.873,282.28,436.854,282.299,436.854,282.299z"/>
				<path style="fill:#FFFFFF;" d="M428.75,306.667c-2.68,0-5.36,0-8.09,0c0-2.693,0-5.36,0-8.074c2.659,0,5.327,0,8.07,0
					c0,2.701,0,5.397,0,8.093L428.75,306.667z"/>
				<path style="fill:#FFFFFF;" d="M379.961,314.812c0-2.716,0-5.431,0-8.147c2.68,0,5.36,0,8.089,0c0,2.715,0,5.383,0,8.147
					C385.354,314.812,382.657,314.812,379.961,314.812z"/>
				<path style="fill:#FFFFFF;" d="M412.452,306.724c0,2.7,0,5.352,0,8.041c-2.682,0-5.334,0-8.042,0c0-2.654,0-5.323,0-8.041
					C407.058,306.724,409.727,306.724,412.452,306.724z"/>
				<path style="fill:#FFFFFF;" d="M428.768,265.986c0-2.7,0-5.352,0-8.041c2.682,0,5.334,0,8.042,0c0,2.654,0,5.323,0,8.041
					C434.162,265.986,431.493,265.986,428.768,265.986z"/>
				<path style="fill:#FFFFFF;" d="M453.131,266.025c0,2.716,0,5.431,0,8.147c-2.68,0-5.36,0-8.089,0c0-2.715,0-5.383,0-8.147
					C447.738,266.025,450.435,266.025,453.131,266.025z"/>
				<path style="fill:#FFFFFF;" d="M314.995,192.915c13.54,0,27.029,0,40.555,0c0,13.52,0,27.01,0,40.554c-13.495,0-27,0-40.555,0
					C314.995,219.98,314.995,206.474,314.995,192.915z M347.411,225.364c0-8.14,0-16.227,0-24.299c-8.136,0-16.223,0-24.3,0
					c0,8.125,0,16.196,0,24.299C331.217,225.364,339.288,225.364,347.411,225.364z"/>
				<path style="fill:#FFFFFF;" d="M469.347,192.933c0,13.537,0,27.026,0,40.553c-13.519,0-27.009,0-40.554,0
					c0-13.492,0-26.998,0-40.553C442.28,192.933,455.785,192.933,469.347,192.933z M436.896,225.347c8.142,0,16.23,0,24.299,0
					c0-8.136,0-16.224,0-24.299c-8.126,0-16.197,0-24.299,0C436.896,209.156,436.896,217.227,436.896,225.347z"/>
				<path style="fill:#FFFFFF;" d="M355.555,306.723c0,13.54,0,27.029,0,40.555c-13.521,0-27.01,0-40.554,0
					c0-13.495,0-27.001,0-40.555C328.491,306.723,341.996,306.723,355.555,306.723z M323.105,339.138c8.142,0,16.229,0,24.299,0
					c0-8.136,0-16.223,0-24.299c-8.126,0-16.197,0-24.299,0C323.105,322.946,323.105,331.017,323.105,339.138z"/>
				<path style="fill:#FFFFFF;" d="M388.13,200.963c0-2.703,0-5.355,0-8.043c2.683,0,5.335,0,8.042,0c0,2.657,0,5.326,0,8.043
					C393.52,200.963,390.852,200.963,388.13,200.963z"/>
				<path style="fill:#4A4685;" d="M379.982,331.066c0-5.424-0.001-10.849-0.001-16.273l-0.02,0.019c2.697,0,5.393,0,8.089,0
					c0-2.764,0-5.432,0-8.147c-2.728,0-5.409,0-8.089,0l0.02,0.019c-0.007-2.715-0.015-5.43-0.022-8.145c5.406,0,10.813,0,16.293,0
					c0-2.748,0-5.418,0-8.088c2.728,0,5.381,0,8.108,0c0,2.702,0,5.372,0,8.047c2.744,0,5.413,0,8.134,0c0-5.437,0-10.827,0-16.216
					l-0.02,0.02c0.344-0.004,0.687-0.011,1.031-0.011c7.789-0.004,15.579-0.008,23.368-0.012c0,2.696,0,5.392,0,8.093
					c2.743,0,5.411,0,8.07,0c0-2.714,0-5.381,0-8.074c-2.73,0-5.41,0-8.09,0c0-2.699,0-5.397,0-8.17c-5.461,0-10.84,0-16.269,0
					c0-5.438,0-10.801,0-16.176c-8.139,0-16.227,0-24.39,0c0,2.716,0,5.387,0,8.107c-5.438,0-10.801,0-16.178,0
					c0,5.43,0,10.809,0,16.263c2.716,0,5.387,0,8.045,0c0,2.73,0,5.384,0,8.113c-2.708,0-5.379,0-8.082,0c0,2.758,0,5.441,0,8.123
					c-2.682,0-5.363,0-8.12,0c0-2.724,0-5.394,0-8.136c-8.161,0-16.248,0-24.367,0c0-2.725,0-5.379,0-8.105
					c8.088,0,16.175,0,24.328,0c0-21.701,0-43.33,0-65.039c2.763,0,5.461,0,8.16,0l-0.019-0.019
					c0.004,7.825,0.008,15.65,0.012,23.476c0,0.273,0,0.546,0,0.867c2.706,0,5.376,0,8.119,0c0-5.382,0-10.76,0-16.173
					c2.726,0,5.38,0,8.106,0c0,5.373,0,10.751,0,16.233c2.77,0,5.468,0,8.166,0l-0.019-0.019c0,2.682,0,5.364,0,8.119
					c13.563,0,27.068,0,40.625,0c0,2.727,0,5.381,0,8.11c2.72,0,5.391,0,8.143,0c0,2.773,0,5.472,0,8.171l0.02-0.019
					c-2.697,0-5.393,0-8.089,0c0,2.764,0,5.432,0,8.147c2.728,0,5.409,0,8.089,0l-0.02-0.019c0,5.391,0,10.781,0,16.277
					c2.75,0,5.448,0,8.147,0l-0.02-0.02c0,5.387,0,10.774,0,16.234c-2.688,0-5.356,0-8.07,0c0,5.448,0,10.823,0,16.298
					c2.697,0,5.393,0,8.09,0l-0.019-0.019c0,2.682,0,5.364,0,8.121c5.435,0,10.815,0,16.23,0c0,2.729,0,5.382,0,8.111
					c-8.079,0-16.167,0-24.33,0c0,5.453,0,10.832,0,16.249c-2.729,0-5.382,0-8.112,0c0-2.656,0-5.327,0-8.102
					c-5.482,0-10.89,0-16.297,0l0.019,0.019c0-2.682,0-5.364,0-8.122c-2.726,0-5.397,0-8.103,0c0-2.729,0-5.383,0-8.112
					c5.372,0,10.751,0,16.175,0c0-2.745,0-5.415,0-8.121c-13.507,0-26.996,0-40.561,0c0,2.659,0,5.33,0,8.08
					c-5.483,0-10.89,0-16.297,0L379.982,331.066z M428.73,306.686c0-2.696,0-5.392,0-8.093c-2.743,0-5.41,0-8.07,0
					c0,2.714,0,5.381,0,8.074c2.73,0,5.41,0,8.09,0c0,2.697,0,5.393,0,8.09c5.451,0,10.826,0,16.192,0c0-2.714,0-5.382,0-8.07
					C439.504,306.686,434.117,306.686,428.73,306.686z M412.452,306.724c-2.725,0-5.394,0-8.042,0c0,2.718,0,5.387,0,8.041
					c2.708,0,5.36,0,8.042,0C412.452,312.076,412.452,309.424,412.452,306.724z M428.768,265.986c2.725,0,5.393,0,8.042,0
					c0-2.718,0-5.387,0-8.041c-2.708,0-5.36,0-8.042,0C428.768,260.634,428.768,263.286,428.768,265.986z M306.849,241.603
					c0-18.957,0-37.866,0-56.811c18.939,0,37.847,0,56.81,0c0,18.913,0,37.837,0,56.811
					C344.753,241.603,325.829,241.603,306.849,241.603z M314.995,192.915c0,13.559,0,27.065,0,40.554c13.554,0,27.06,0,40.555,0
					c0-13.544,0-27.033,0-40.554C342.025,192.915,328.535,192.915,314.995,192.915z M477.456,241.622c-18.954,0-37.863,0-56.809,0
					c0-18.938,0-37.846,0-56.811c18.91,0,37.834,0,56.809,0C477.456,203.715,477.456,222.64,477.456,241.622z M469.347,192.933
					c-13.562,0-27.068,0-40.554,0c0,13.555,0,27.061,0,40.553c13.545,0,27.034,0,40.554,0
					C469.347,219.959,469.347,206.47,469.347,192.933z M306.867,298.577c18.957,0,37.866,0,56.81,0c0,18.939,0,37.847,0,56.811
					c-18.912,0-37.837,0-56.81,0C306.867,336.481,306.867,317.557,306.867,298.577z M355.555,306.723c-13.559,0-27.064,0-40.554,0
					c0,13.554,0,27.06,0,40.555c13.544,0,27.033,0,40.554,0C355.555,333.753,355.555,320.263,355.555,306.723z M379.978,217.279
					c0-5.392,0-10.784,0-16.252c-2.721,0-5.392,0-8.099,0c0-5.439,0-10.803,0-16.219c13.499,0,27.006,0,40.558,0
					c0,5.371,0,10.751,0,16.182c-2.671,0-5.325,0-8.031,0c0,2.721,0,5.392,0,8.139c2.666,0,5.338,0,8.042,0
					c0,5.439,0,10.803,0,16.216c-2.67,0-5.341,0-8.088,0c0-2.671,0-5.343,0-8.064c-2.73,0-5.384,0-8.114,0c0-2.721,0-5.393,0-8.102
					c-2.73,0-5.384,0-8.114,0c0,2.655,0,5.326,0,8.081c-2.774,0-5.474,0-8.173,0C379.959,217.26,379.978,217.279,379.978,217.279z
					 M388.13,200.963c2.722,0,5.39,0,8.042,0c0-2.717,0-5.386,0-8.043c-2.707,0-5.359,0-8.042,0
					C388.13,195.608,388.13,198.26,388.13,200.963z M347.467,257.919c-5.424,0-10.848,0-16.272,0l0.019-0.019
					c0,8.116,0,16.233,0,24.337c-5.483,0-10.863,0-16.293,0c0-2.708,0-5.363,0-8.027c-2.722,0-5.392,0-8.049,0
					c0,5.426,0,10.805,0,16.173c10.835,0,21.616,0,32.473,0c0-5.416,0-10.796,0-16.249c8.164,0,16.252,0,24.333,0
					c0-2.729,0-5.383,0-8.112c-5.416,0-10.795,0-16.231,0c0-2.757,0-5.439,0-8.122L347.467,257.919z M379.982,331.067
					c-2.699,0-5.398,0-8.087,0c0,8.172,0,16.26,0,24.34c8.125,0,16.197,0,24.287,0c0-2.707,0-5.377,0-8.123
					c-2.715,0-5.386,0-8.107,0c0-2.73,0-5.384,0-8.113c-2.721,0-5.392,0-8.113,0c0-2.758,0-5.441,0-8.123
					C379.962,331.047,379.982,331.066,379.982,331.067z M331.195,257.918c0-2.699,0-5.397,0-8.089c-8.169,0-16.256,0-24.32,0
					c0,5.429,0,10.807,0,16.166c2.711,0,5.364,0,8.092,0c0-2.71,0-5.38,0-8.096c5.466,0,10.856,0,16.247,0
					C331.215,257.899,331.195,257.918,331.195,257.918z M477.456,249.812c-5.413,0-10.776,0-16.165,0c0,2.704,0,5.374,0,8.12
					c2.712,0,5.383,0,8.103,0c0,5.439,0,10.802,0,16.198c2.705,0,5.359,0,8.062,0C477.456,265.99,477.456,257.902,477.456,249.812z
					 M347.447,257.899c5.405,0,10.809,0,16.222,0c0-2.741,0-5.41,0-8.072c-5.422,0-10.798,0-16.202,0c0,2.729,0,5.41,0,8.091
					C347.467,257.919,347.447,257.9,347.447,257.899z M461.238,290.411c2.696,0,5.393,0,8.094,0c0-2.743,0-5.411,0-8.07
					c-2.714,0-5.382,0-8.074,0c0,2.73,0,5.41,0,8.09L461.238,290.411z M469.414,306.632c2.706,0,5.375,0,8.042,0
					c0-2.712,0-5.381,0-8.054c-2.702,0-5.354,0-8.042,0C469.414,301.31,469.414,303.963,469.414,306.632z M404.343,241.644
					c2.696,0,5.393,0,8.094,0c0-2.743,0-5.411,0-8.07c-2.714,0-5.381,0-8.074,0c0,2.73,0,5.41,0,8.09
					C404.362,241.663,404.343,241.644,404.343,241.644z M379.961,314.812c0-2.716,0-5.431,0-8.147l0.02,0.019
					c-2.697,0-5.394,0-8.09,0c0,2.745,0,5.414,0,8.11c2.729,0,5.41,0,8.09,0L379.961,314.812z M461.239,322.923
					c2.696,0,5.392,0,8.093,0c0-2.743,0-5.411,0-8.071c-2.714,0-5.382,0-8.074,0c0,2.73,0,5.41,0,8.09
					C461.258,322.943,461.239,322.923,461.239,322.923z M453.131,266.025c0,2.716,0,5.431,0,8.147l-0.02-0.019
					c2.697,0,5.394,0,8.09,0c0-2.745,0-5.414,0-8.109c-2.729,0-5.41,0-8.09,0L453.131,266.025z M412.434,339.241
					c-2.717,0-5.386,0-8.044,0c0,2.707,0,5.36,0,8.043c2.689,0,5.341,0,8.044,0C412.434,344.561,412.434,341.892,412.434,339.241z
					 M428.749,347.322c-2.696,0-5.393,0-8.093,0c0,2.743,0,5.411,0,8.071c2.714,0,5.382,0,8.074,0c0-2.73,0-5.41,0-8.09
					C428.73,347.303,428.749,347.322,428.749,347.322z M477.457,347.37c-2.719,0-5.388,0-8.042,0c0,2.708,0,5.361,0,8.043
					c2.69,0,5.342,0,8.042,0C477.457,352.687,477.457,350.018,477.457,347.37z M412.474,282.302c0-2.696,0-5.393,0-8.094
					c-2.743,0-5.411,0-8.07,0c0,2.714,0,5.381,0,8.074c2.73,0,5.41,0,8.09,0L412.474,282.302z M347.411,201.065
					c-8.136,0-16.223,0-24.3,0c0,8.125,0,16.196,0,24.299c8.107,0,16.178,0,24.3,0C347.411,217.224,347.411,209.137,347.411,201.065
					z M461.195,225.347c0-8.136,0-16.224,0-24.299c-8.126,0-16.197,0-24.299,0c0,8.108,0,16.179,0,24.299
					C445.039,225.347,453.126,225.347,461.195,225.347z M347.404,339.138c0-8.136,0-16.223,0-24.299c-8.126,0-16.197,0-24.299,0
					c0,8.107,0,16.178,0,24.299C331.247,339.138,339.334,339.138,347.404,339.138z"/>
			</g>
			<g>
				<path style="fill:#C74C63;" d="M175.253,352.886l55.849-11.829l8.971,29.306c0,0-61.602,2.99-64.712,3.349
					c-3.11,0.359-10.407-2.151-10.407-10.646c0-2.153,1.043-4.037,2.347-5.551C169.354,355.131,172.175,353.538,175.253,352.886z"/>
				<path style="fill:#C74C63;" d="M172.455,356.806c4.732-3.683,10.975-2.712,14.951,2.11c2.255,2.734,4.755,6.148,6.016,9.149
					c2.622,6.237-1.049,11.837-5.558,13.237c-4.509,1.4-15.362-6.403-19.242-10.221
					C166.937,365.189,168.057,360.228,172.455,356.806z"/>
				<path style="fill:#FFD6C6;" d="M192.384,373.937c0,3.053-2.915,5.528-6.511,5.528c-3.596,0-6.511-2.475-6.511-5.528
					c0-3.053,2.915-5.528,6.511-5.528C189.469,368.409,192.384,370.884,192.384,373.937z"/>
				<g>
					<path style="fill:#E5B18D;" d="M241.542,265.447c0,0-0.59,1.454-1.084,2.176c-0.494,0.721-4.028,3.081-5.067,4.021
						c-1.039,0.94-1.534,2.018-1.326,2.783c0.208,0.765,1.487,5.052,1.495,5.9c0.009,0.848-0.724,5.518-0.724,5.518l5.467,0.221
						c0,0,1.486-4.123,1.906-4.73c0.42-0.607,2.351-2.435,2.585-3.712c0.233-1.277-0.664-2.84-0.379-3.97
						c0.285-1.13,0.424-2.387,0.424-2.387s-2.045,1.043-2.488,2.623c-0.443,1.581-0.267,2.471-0.267,2.471l-1.086-1.521
						l-0.317-3.509c0,0,1.105-2.438,1.663-3.589C242.902,266.592,242.643,265.146,241.542,265.447z"/>
					<path style="fill:#4658E9;" d="M233.487,282.669l8.931,1.278l-3.23,17.881c0,0,15.694-9.703,20.755-12.785
						c5.061-3.083,14.452,0.65,11.724,10.172c-2.728,9.522-33.583,19.894-38.253,21.777c-4.67,1.884-8.324-0.444-8.667-6.007
						C224.404,309.422,233.487,282.669,233.487,282.669z"/>
				</g>
				<path style="fill:#FFDC8A;" d="M241.842,278.15L241.842,278.15c-0.786-0.072-1.366-0.767-1.294-1.554l1.7-18.685
					c0.072-0.786,0.767-1.366,1.554-1.294l0,0c0.786,0.071,1.366,0.767,1.294,1.553l-1.7,18.685
					C243.324,277.642,242.628,278.222,241.842,278.15z"/>
				<path style="fill:#FFD6C6;" d="M240.105,265.292c0,0-0.229,1.651-0.55,2.523c-0.321,0.872-3.349,4.22-4.174,5.459
					c-0.826,1.239-1.055,2.477-0.642,3.211c0.413,0.734,2.844,4.817,3.074,5.688c0.229,0.872,0.688,5.872,0.688,5.872l5.688-1.193
					c0,0,0.459-4.633,0.734-5.367c0.275-0.734,1.789-3.119,1.697-4.496c-0.092-1.376-1.422-2.752-1.422-3.991
					c0-1.239-0.183-2.569-0.183-2.569s-1.835,1.606-1.881,3.349c-0.046,1.743,0.367,2.615,0.367,2.615l-1.514-1.284l-1.239-3.532
					c0,0,0.505-2.798,0.78-4.128C241.802,266.118,241.16,264.696,240.105,265.292z"/>
				<path style="fill:#1B2644;" d="M257.966,247.102c-3.971,4.416-4.897,9.539-2.462,15.514c2.435,5.975,23.042,9.476,27.582,5.99
					c4.54-3.486,2.704-13.122-1.476-14.47C277.431,252.789,269.515,234.258,257.966,247.102z"/>
				<path style="fill:#1B2644;" d="M286.507,253.443c-0.424,3.542-3.456,4.541-6.998,4.117c-3.542-0.424-6.253-2.11-5.829-5.652
					c0.424-3.542,3.456-4.541,6.998-4.117C284.22,248.214,286.931,249.901,286.507,253.443z"/>
				<path style="fill:#1B2644;" d="M285.543,246.889c-0.329,2.748-2.682,3.524-5.43,3.195c-2.749-0.329-4.852-1.637-4.523-4.386
					c0.329-2.749,2.682-3.524,5.43-3.195S285.872,244.14,285.543,246.889z"/>
				<path style="fill:#FFD6C6;" d="M163.254,377.601c0.829-3.465,1.102-4.129,1.102-4.129l-10.706-3.05l-2.205,4.811
					C154.871,377.566,159.173,378.434,163.254,377.601z"/>
				<path style="fill:#18151E;" d="M163.254,377.601c-4.081,0.833-8.383-0.036-11.809-2.368l-0.427,0.931
					c0,0-14.952,7.835-15.729,8.612c-0.13,0.13-0.224,0.294-0.292,0.478c-0.419,1.136,0.484,2.333,1.695,2.333h24.374
					c0,0,2.572-2.572,1.495-6.998C162.827,379.414,163.056,378.429,163.254,377.601z"/>
				<path style="fill:#6776ED;" d="M278.06,281.255c-9.972-2.137-22.804,9.195-26.727,12.26c-3.923,3.065-7.724,5.149-5.762,10.912
					c1.962,5.762,2.942,6.743,2.942,6.743l-1.839,9.808l-12.26,15.938c0,0,9.602,18.467,28.973,16.26
					c1.065,1.161,2.866,2.226,3.685-2.211c3.762-20.383,8.29-33.665,8.29-33.665s7.234-9.318,8.95-18.513
					C286.03,289.592,284.926,282.726,278.06,281.255z"/>
				<path style="fill:#FB717E;" d="M263.47,352.144c0.958,0.387,1.551,1.354,1.456,2.382c-0.357,3.839-1.909,12.887-8.666,18.907
					c-8.772,7.815-23.126,5.901-31.579-1.914c-8.453-7.815-32.855-35.087-32.855-35.087l-25.837,38.118
					c0,0-11.643-0.478-16.108-6.379c6.061-14.832,29.824-57.097,29.824-57.097s4.147-7.974,11.005-8.772
					c6.858-0.797,15.151,7.815,15.151,7.815S248.055,345.92,263.47,352.144z"/>
				<path style="fill:#18151E;" d="M189.461,372.116c0,0-7.132,0.138-13.625,2.588c-3.745,1.413-7.041,3.613-9.158,5.222
					c-1.242,0.943-0.952,2.887,0.508,3.434c2.47,0.926,6.366,1.93,11.265,1.683c8.709-0.439,12.619-1.19,14.32-4.467
					C194.472,377.297,193.121,373.196,189.461,372.116z"/>
				<path style="fill:#6776ED;" d="M236.284,285.124l9.531-1.005l1.914,21.531c0,0,16.268-13.995,21.172-17.942
					c4.904-3.947,15.311-1.316,13.756,9.091c-1.555,10.407-34.417,26.814-39.075,29.444c-4.658,2.63-8.828,0.684-9.96-5.127
					C232.49,315.304,236.284,285.124,236.284,285.124z"/>
				<path style="fill:#FFD6C6;" d="M269.002,257.243c-7.981,2.158-9.642,4.97-9.82,9.792c-0.178,4.822,1.371,11.686,3.094,12.185
					c1.722,0.499,6.074-2.778,6.074-2.778s-0.28,5.46-1.725,8.224c-1.445,2.764-4.833,5.845-4.833,5.845l16.358-6.489
					c0,0-1.282-6.687-1.235-10.633C276.962,269.442,277.051,255.067,269.002,257.243z"/>
				<path style="fill:#1B2644;" d="M261.79,259.509c0,0,0.061,3.931,2.211,5.037c2.15,1.106,4.852,0.184,4.852,0.184l0.368,1.966
					l0.86-0.614l0.491-1.474c0,0,1.106-2.703,2.703-1.781c1.597,0.921,2.395,6.756,2.395,6.756l1.29,1.106
					c0,0,7.555-0.983,8.476-6.879C286.359,257.912,271.004,249.804,261.79,259.509z"/>
				<polygon style="fill:#FFD6C6;" points="268.424,276.318 272.314,273.984 267.933,279.716 				"/>
				<polygon style="fill:#6776ED;" points="242.75,326.356 274.853,306.619 238,332.416 				"/>
				<polygon style="fill:#6776ED;" points="247.479,304.578 247.728,305.65 268.137,290.527 				"/>
				<g>
					<path style="fill:#A3B7E7;" d="M272.846,288.807c1.716-0.242,3.552-0.076,5.173,0.792c0.791,0.452,1.5,1.135,1.905,1.987
						c0.384,0.801,0.708,1.638,0.905,2.512c0.419,1.737,0.353,3.625-0.297,5.292c-0.628,1.669-1.728,3.142-3.141,4.157
						c1.222-1.227,2.133-2.727,2.624-4.332c0.474-1.614,0.503-3.323,0.095-4.946c-0.203-0.81-0.484-1.605-0.841-2.368
						c-0.34-0.716-0.885-1.329-1.575-1.769c-0.679-0.458-1.477-0.762-2.3-0.96C274.57,288.96,273.714,288.848,272.846,288.807z"/>
				</g>
				<g>
					<path style="fill:#C74C63;" d="M183.539,355.812c1.636,0.693,3.202,1.565,4.656,2.608c1.465,1.027,2.819,2.236,3.971,3.655
						c0.559,0.701,1.068,1.576,1.34,2.448c0.28,0.879,0.479,1.763,0.591,2.655c0.239,1.78,0.255,3.57,0.089,5.34
						c-0.224-1.761-0.502-3.502-0.859-5.203c-0.402-1.701-0.843-3.347-1.945-4.623c-1.061-1.337-2.328-2.534-3.66-3.659
						C186.382,357.912,184.986,356.84,183.539,355.812z"/>
				</g>
				<polygon style="opacity:0.4;fill:#C74C63;" points="201.72,347.295 218.591,371.372 224.078,371.126 				"/>
				<g>
					<path style="fill:#C74C63;" d="M186.011,320.238c0.25,1.21,0.572,2.388,0.915,3.555c0.351,1.164,0.744,2.312,1.205,3.431
						c0.44,1.128,0.955,2.225,1.524,3.296c0.554,1.083,1.205,2.11,1.857,3.163c-0.876-0.866-1.709-1.807-2.362-2.867
						c-0.688-1.039-1.25-2.158-1.715-3.313C186.519,325.194,185.949,322.718,186.011,320.238z"/>
				</g>
				<g>
					<path style="fill:#C74C63;" d="M190.986,317.78c-0.169,1.224-0.26,2.442-0.328,3.656c-0.059,1.215-0.072,2.428-0.013,3.637
						c0.037,1.21,0.156,2.416,0.333,3.616c0.159,1.206,0.429,2.391,0.691,3.603c-0.536-1.11-1.005-2.275-1.266-3.492
						c-0.301-1.209-0.455-2.452-0.507-3.696C189.805,322.62,190.097,320.097,190.986,317.78z"/>
				</g>
				<path style="opacity:0.5;fill:none;stroke:#C74C63;stroke-linecap:round;stroke-miterlimit:10;" d="M160.515,368.106
					l26.341-44.765c0,0,2.825,1.106,3.931-0.491c2.948,3.071,42.012,42.995,56.999,43.732"/>
				<path style="fill:none;stroke:#A3B7E7;stroke-linecap:round;stroke-miterlimit:10;" d="M270.676,311.916l-6.47,9.254
					c0,0-3.194,15.642-6.224,24.405"/>
			</g>
			<g>
				<path style="fill:#F4A177;" d="M590.888,197.18c0,0,0.203,1.808-0.819,3.685s-3.263,2.914-4.586,3.358
					c-1.324,0.443-4.967,0.535-5.924,0.626c-0.957,0.091-3.421,1.016-3.421,1.016l-2.004-4.528c0,0,4.618-4.537,5.467-5.032
					c0.85-0.495,0.932-2.669,1.989-3.018c1.057-0.349,2.522-0.902,2.429-2.025c1.669-0.145,1.799,1.222,1.724,1.588
					c-0.076,0.366,1.219,1.36,1.219,1.36L590.888,197.18z"/>
				<path style="fill:#F9CBB4;" d="M539.045,379.523l-0.968-1.389l1.084-2.298l-9.194-5.681c0,0-2.43,1.669-3.85,3.299
					C529.491,377.034,534.382,380.012,539.045,379.523z"/>
				<path style="fill:#FF7384;" d="M546.554,385.075l-6.568-3.775l-0.911-1.735l-0.029-0.042c-4.664,0.489-9.554-2.489-12.927-6.069
					c-0.308,0.353-0.569,0.705-0.747,1.037c-0.997,1.865-1.214,4.163,1.648,6.548c1.948,1.624,5.243,4.132,7.149,5.568
					c0.951,0.717,2.13,1.059,3.318,0.965l8.662-0.69C547.097,386.806,547.38,385.55,546.554,385.075z"/>
				<path style="fill:#F9CBB4;" d="M565.599,377.71l-1.22-3.327l-10.213,2.277l1.876,4.537
					C559.505,381.16,562.904,379.971,565.599,377.71z"/>
				<path style="fill:#FF7384;" d="M575.288,384.623l-7.852-4.711l-1.626-1.626l-0.211-0.576c-2.695,2.262-6.094,3.45-9.557,3.487
					l0.921,2.228c0,0,0.26,1.952,2.472,2.732c1.513,0.534,10.035,0.611,15.263,0.607
					C575.866,386.763,576.29,385.224,575.288,384.623z"/>
				<path style="fill:#3E41A8;" d="M509.877,268.969l21.645,51.429c0,0,1.85,11.655,3.7,17.39
					c1.85,5.735,16.835,38.664,16.835,38.664s6.66,3.7,13.875-1.665l-13.505-52.909c0,0,0.37-5.92-1.295-8.51
					c-0.925-7.585-11.285-52.539-11.285-52.539L509.877,268.969z"/>
				<path style="fill:#6776ED;" d="M501.216,255.668c0,0-2.862,9.887,3.903,19.124c6.765,9.237,46.965,40.591,46.965,40.591
					l1.301,0.781l-24.979,53.21c0,0,2.212,8.847,12.359,7.416c17.433-24.198,38.249-53.34,39.94-58.544
					c1.691-5.204-5.334-15.482-5.334-15.482l-34.086-45.925l-0.13-3.643L501.216,255.668z"/>
				<path style="fill:#C74C63;" d="M532.662,183.623c-7.573,3.348-4.85,13.759-2.458,19.35c2.392,5.591,12.752,18.182,15.221,19.305
					c2.469,1.123,4.922,0.007,6.335-0.758c1.413-0.764,27.216-15.371,27.216-15.371c-0.994-2.85-2.417-5.204-4.629-6.648
					l-20.72,6.641l-8.278-15.755C545.35,190.388,540.826,180.014,532.662,183.623z"/>
				<path style="fill:#F9CBB4;" d="M536.893,150.681c-3.803,4.139-2.741,12.92,3.188,13.759c0.818,1.324,4.347,5.684,6.906,8.495
					c1.428,1.568,3.925,1.473,5.218-0.208c2.705-3.517,4.679-9.057,4.935-13.657c0.336-6.04-3.524-11.577-11.13-11.633
					C539.064,147.386,536.893,150.681,536.893,150.681z"/>
				<path style="fill:#F9CBB4;" d="M537.956,163.377c0,0-0.574,5.232-1.611,8.375c-1.031,3.125-4.206,6.391-4.206,6.391
					s7.718,5.817,15.269,5.873c-1.007-4.083-0.895-8.222-0.28-9.62c0.615-1.398,3.468-4.754,3.468-4.754
					C546.766,164.609,542.607,162.103,537.956,163.377z"/>
				<path style="fill:#FF7284;" d="M539.703,176.624c-8.371-1.588-19.409,1.433-23.995,17.116c-1.853,6.336-1.72,17.607-3.44,26.78
					c-1.72,9.172-12.612,27.763-13.84,34.314c9.827,9.5,32.103,10.728,46.353,4.832c0.655-16.297,4.832-30.383,4.832-30.383
					s5.569-16.952,5.897-26.698C555.836,192.84,549.203,178.426,539.703,176.624z"/>
				<path style="fill:#687AE0;" d="M581.625,201.616L581.625,201.616c-0.58-0.335-0.78-1.076-0.445-1.656l11.859-20.577
					c0.334-0.58,1.076-0.78,1.656-0.445l0,0c0.58,0.335,0.78,1.076,0.445,1.656l-11.859,20.578
					C582.947,201.751,582.205,201.95,581.625,201.616z"/>
				<path style="fill:#3A3647;" d="M556.127,142.812c1.358-0.683,2.986,0.057,3.374,1.526c0.775,2.932,0.46,5.635-1.242,7.629
					c-2.293,2.685-2.517,2.685-5.537,2.405c-3.02-0.28-4.418-0.28-5.257,0.391c-0.839,0.671-1.734,4.363-1.734,4.363l-1.902-0.336
					c0,0,0.559-1.79-0.671-3.579c-1.231-1.79-4.307,0.895-4.81,2.852c-0.503,1.958,0.951,6.488,0.951,6.488
					s-1.622,0.335-2.908-0.503c-1.286-0.839-3.132-4.083-3.412-8.781c-0.185-3.115,0.727-7.271,3.244-9.005
					c2.517-1.734,4.81-0.727,8.278-0.783C547.213,145.436,552.766,144.502,556.127,142.812z"/>
				<path style="fill:#F9CBB4;" d="M573.715,204.676c0,0,2.793-2.77,3.256-3.283c0.463-0.513,0.055-3.44,0.774-5.202
					c0.72-1.762,3.947-2.961,4.923-3.998c0.976-1.037,1.209-2.644,1.209-2.644s0.958,0.11,1.157,1.055
					c0.199,0.945-0.989,3.689-0.989,3.689l4.963-3.071l1.364-2.157c0,0,1.081,0.447,1.422,1.57c0.341,1.123,0.21,6.916-0.797,8.79
					c-1.008,1.874-5.622,4.872-7.266,5.946c-1.644,1.074-4.77,2.888-5.544,4.142C574.916,207.553,573.715,204.676,573.715,204.676z"
					/>
				<path style="fill:#C74C63;" d="M527.623,204.551l22.05,23.095l-2.088,9.889C547.585,237.534,535.055,226.785,527.623,204.551z"
					/>
				<path style="fill:#FF7284;" d="M530.612,182.93c-8.419,3.535-5.632,15.071-3.11,21.284c2.522,6.213,14.945,22.322,16.705,24.741
					c2.621,3.603,7.271,1.305,8.845,0.492c1.574-0.814,28.213-21.287,28.213-21.287c-1.109-2.817-3.242-4.821-5.432-6.779
					l-22.944,11.359l-8.426-22.089C544.462,190.651,539.689,179.12,530.612,182.93z"/>
				<path style="fill:#F9CBB4;" d="M541.075,165.364c0,0,2.518,6.142,6.633,8.353c-0.86,0.553-0.921,2.641-0.921,2.641
					S540.706,171.444,541.075,165.364z"/>
				<path style="opacity:0.5;fill:none;stroke:#3E41A8;stroke-width:0.75;stroke-linecap:round;stroke-miterlimit:10;" d="
					M520.99,266.341c0,0,12.161-2.58,12.653,9.09c9.769,10.756,23.907,29.808,29.092,36.888c1.225,1.673,1.356,3.902,0.341,5.71
					l-29.311,52.237"/>
				<polyline style="fill:none;stroke:#C74C63;stroke-linecap:round;stroke-miterlimit:10;" points="518.164,256.145 
					525.863,231.74 527.337,206.189 				"/>
				<polygon style="fill:#C74C63;" points="552.888,212.74 545.026,192.103 554.69,209.628 554.198,211.757 				"/>
				<g>
					<path style="fill:#C74C63;" d="M527.173,198.736c-0.791-2.272-0.717-4.872,0.21-7.176c0.933-2.309,2.723-4.231,4.839-5.498
						c0.562-0.28,1.077-0.646,1.698-0.814c0.301-0.1,0.597-0.214,0.902-0.3l0.947-0.147c1.268-0.108,2.578,0.085,3.711,0.642
						c2.259,1.126,3.919,3.064,4.981,5.208c-0.701-0.972-1.489-1.87-2.382-2.636c-0.872-0.782-1.848-1.442-2.906-1.867
						c-1.066-0.401-2.194-0.551-3.296-0.406l-0.823,0.144c-0.268,0.08-0.529,0.188-0.794,0.279
						c-0.544,0.146-1.014,0.499-1.519,0.752c-1.99,1.168-3.632,2.894-4.657,4.952c-0.524,1.03-0.819,2.17-0.967,3.329
						C526.944,196.359,526.978,197.554,527.173,198.736z"/>
				</g>
			</g>
			<path style="fill:#4A4685;" d="M455.788,407.271c-18.954,0-37.863,0-56.809,0c7.371-6.899,14.73-13.786,22.112-20.695
				c18.91,0,37.834,0,56.809,0C470.542,393.462,463.176,400.356,455.788,407.271z M466.629,389.535c-13.562,0-27.068,0-40.554,0
				c-5.276,4.938-10.533,9.857-15.784,14.772c13.545,0,27.034,0,40.554,0C456.11,399.38,461.361,394.466,466.629,389.535z"/>
			<path style="fill:#4A4685;" d="M421.562,401.342c3.161-2.958,6.302-5.898,9.458-8.852c8.102,0,16.173,0,24.299,0
				c-3.143,2.942-6.291,5.888-9.457,8.852C437.792,401.342,429.705,401.342,421.562,401.342z"/>
			<path style="fill:#D4D7F6;" d="M608.657,118.393c0-15.646-12.683-28.329-28.329-28.329S552,102.748,552,118.393
				c0,13.004,8.765,23.954,20.708,27.283l9.669,34.494v-33.53C597.065,145.59,608.657,133.349,608.657,118.393z"/>
			<path style="fill:#FF97A4;" d="M228.336,192.565c1.804-15.541,15.865-26.677,31.406-24.873
				c15.541,1.804,26.677,15.865,24.873,31.406c-1.499,12.917-11.469,22.783-23.716,24.713l-13.581,33.149l3.866-33.306
				C236.715,220.916,226.612,207.421,228.336,192.565z"/>
		</g>
	</g>
	<path style="fill:#4A4685;" d="M452.41,442.378c-5.919,0-11.838,0-17.758,0l0.005,0.014c6.989-5.731,13.978-11.463,20.957-17.186
		c-5.984,0-11.854,0-17.78,0c-2.332,1.912-4.618,3.787-6.912,5.668c-2.97,0-5.884,0-8.784,0c4.672-3.832,9.305-7.63,13.926-11.42
		c11.825,0,23.59,0,35.437,0c-4.664,3.825-9.296,7.623-13.992,11.474c8.909,0,17.736,0,26.554,0
		c-2.35,1.927-4.635,3.801-6.985,5.728c-5.91,0-11.781,0-17.713,0c-2.374,1.947-4.684,3.841-6.993,5.735L452.41,442.378z"/>
	<path style="fill:#4A4685;" d="M396.874,437.934c-2.324,1.906-4.648,3.811-6.966,5.712c-8.915,0-17.74,0-26.54,0
		c4.675-3.834,9.306-7.631,13.921-11.416c2.958,0,5.854,0,8.831,0c-2.333,1.913-4.633,3.799-6.972,5.717c5.965,0,11.848,0,17.73,0
		C396.879,437.948,396.874,437.934,396.874,437.934z"/>
	<path style="fill:#4A4685;" d="M414.594,437.948c5.898,0,11.796,0,17.703,0c-2.36,1.936-4.658,3.82-6.951,5.7
		c-5.917,0-11.784,0-17.682,0c2.35-1.927,4.659-3.821,6.967-5.714C414.632,437.934,414.594,437.948,414.594,437.948z"/>
</g>
</svg>
